<svg width="271" height="101" viewBox="0 0 271 101" fill="none" xmlns="http://www.w3.org/2000/svg">
<path d="M0 3.32237L18.3496 0.812135L18.8655 48.5804L22.3291 49.1711L50.0378 0L66.103 9.52412C63.3026 15.5782 59.7899 21.6323 55.5648 27.6864L46.2794 40.6806L40.6787 47.8421C38.9101 50.057 37.2643 51.952 35.7413 53.527C39.6225 57.5139 42.5211 60.5902 44.4371 62.7558C54.1155 74.0765 61.0181 83.1577 65.1449 89.9993L50.0378 101L24.5399 61.7222L18.276 64.6016L17.0232 96.7917L0.589547 98.2683L0 3.32237ZM10.5382 68.0716C10.5382 68.1209 10.5382 68.1455 10.5382 68.1455C10.5873 68.1455 10.6118 68.1209 10.6118 68.0716H10.5382Z" fill="white"/>
<path d="M62.7425 71.3719L83.7083 44.2392L82.824 42.5042H81.8291C75.9091 42.5042 69.768 41.9504 63.4058 40.843L64.8428 32.6847L70.5909 33.3123C78.6972 34.1736 85.1822 34.6658 90.0459 34.7889L93.399 45.0144L88.9405 51.2531L83.6346 58.3408L77.9971 65.5393L72.6174 72.2209L73.0965 73.6606H74.2387C80.1342 73.6606 86.3367 74.2389 92.8463 75.3956L91.483 83.7754C89.3458 83.6031 87.1473 83.3939 84.8874 83.1478L71.4015 81.8189C69.1907 81.622 67.0904 81.4497 65.1007 81.302L62.7425 71.3719Z" fill="white"/>
<path d="M99.884 36.5977L108.875 34.8627V46.4541L118.123 44.7191L118.823 53.0988L109.022 53.8371L108.322 73.8083C110.14 74.3743 111.712 74.8173 113.038 75.1372C116.354 75.9247 118.381 76.4169 119.118 76.6138L117.165 84.3291C111.712 83.1232 106.934 81.7327 102.832 80.1577C101.161 79.5424 100.326 78.435 100.326 76.8353L99.884 36.5977Z" fill="white"/>
<path d="M150.954 84.3291C140.833 83.2955 132.899 81.7573 127.151 79.7147C126.094 79.3209 125.394 77.0568 125.05 72.9223C124.756 69.1323 125.075 65.8469 126.008 63.0659C126.401 61.9093 126.868 61.2694 127.408 61.1463C129.718 60.5311 132.149 60.0881 134.704 59.8174L142.368 58.9683L142.221 53.7633C139.543 53.2465 136.878 52.8404 134.225 52.5451C131.597 52.2252 128.981 51.856 126.377 51.4376L128.33 43.3532L134.557 44.2761C140.256 45.1128 144.788 46.1342 148.153 47.3401C149.774 47.9307 150.585 49.1243 150.585 50.9208L150.732 71.1504L142.884 71.9256L142.663 65.6131L140.563 66.0192C138.205 66.4129 135.957 66.9051 133.82 67.4958C133.55 68.8001 133.414 69.8829 133.414 70.7443C133.414 71.9994 133.464 72.9715 133.562 73.6606C137.025 74.4481 142.368 75.248 149.59 76.0601L152.612 76.3923L150.954 84.3291Z" fill="white"/>
<path d="M159.87 36.5977L168.861 34.8627V46.4541L178.11 44.7191L178.81 53.0988L169.008 53.8371L168.308 73.8083C170.126 74.3743 171.698 74.8173 173.025 75.1372C176.341 75.9247 178.367 76.4169 179.104 76.6138L177.151 84.3291C171.698 83.1232 166.92 81.7327 162.818 80.1577C161.148 79.5424 160.313 78.435 160.313 76.8353L159.87 36.5977Z" fill="white"/>
<path d="M195.906 26.1138C196.177 27.0736 196.312 28.1565 196.312 29.3624C196.312 30.5436 196.275 31.5527 196.201 32.3894C196.128 33.2015 196.042 33.9645 195.943 34.6781C195.698 36.2286 195.415 37.2868 195.096 37.8529L186.621 37.4837C187.039 35.318 187.247 31.8603 187.247 27.1105L195.906 26.1138ZM195.612 44.7191C195.735 47.2539 195.796 49.3827 195.796 51.1054C195.796 52.8281 195.759 54.8462 195.685 57.1595L194.838 81.6712L186.99 82.3357L186.253 45.9004L195.612 44.7191Z" fill="white"/>
<path d="M214.367 59.8174C214.367 65.7484 214.674 70.892 215.288 75.248L222.547 74.8788C223.873 69.6122 224.536 64.4687 224.536 59.4482C224.536 57.4302 224.401 55.6337 224.131 54.0586C222.657 53.3203 217.449 52.9512 208.508 52.9512H206.629C206.113 52.9512 205.548 52.9758 204.934 53.025L206.518 44.4607C206.936 44.4361 207.317 44.4115 207.661 44.3868C208.029 44.3376 208.397 44.313 208.766 44.313L209.871 44.2392C210.24 44.2392 211.272 44.2392 212.966 44.2392C217.83 44.2392 223.161 44.8914 228.958 46.1957C230.8 46.6633 231.93 47.4877 232.348 48.669C232.987 50.4902 233.306 53.4557 233.306 57.5656C233.306 65.0717 232.164 72.3317 229.879 79.3455C229.683 79.9854 229.449 80.5268 229.179 80.9698C228.933 81.4128 228.491 81.6958 227.853 81.8189C227.214 81.9665 226.465 82.1019 225.605 82.2249C224.745 82.348 223.898 82.4587 223.062 82.5572C221.245 82.7294 219.992 82.8156 219.304 82.8156C218.616 82.8156 217.879 82.8033 217.093 82.7787C216.307 82.7787 215.447 82.754 214.514 82.7048C212.058 82.5818 210.399 82.3603 209.54 82.0404C208.68 81.745 208.09 81.2282 207.771 80.4899C207.476 79.7516 207.182 78.5703 206.887 76.9461C206.199 73.1561 205.855 68.837 205.855 63.9888C205.855 62.1431 205.904 60.3096 206.002 58.4885L214.367 56.8273V59.8174Z" fill="white"/>
<path d="M242.26 46.3803L250.108 45.3836L251.398 50.9947L257.883 45.3836H266.947C267.414 45.3836 268.065 45.7404 268.9 46.4541C270.3 47.6108 271 48.6444 271 49.555L269.71 81.745L261.494 82.4095L261.346 53.911C261.051 53.8125 260.646 53.7633 260.13 53.7633C259.614 53.7633 259.135 53.7879 258.693 53.8371C258.276 53.8864 257.821 53.9602 257.33 54.0586C256.175 54.2555 255.23 54.4893 254.493 54.76L251.766 55.7567L250.771 81.3759L242.923 81.9665L242.26 46.3803Z" fill="white"/>
</svg>
